<svg width="237" height="242" viewBox="0 0 237 242" fill="none" xmlns="http://www.w3.org/2000/svg">
<g filter="url(#filter0_d_1_1128)">
<rect x="53.6" y="17.6001" width="159" height="164" rx="17" fill="white"/>
</g>
<rect x="73.6" y="36.6001" width="53" height="53" rx="5" fill="#FF5A5F"/>
<rect x="134.6" y="36.6001" width="53" height="53" rx="5" fill="#0E214B"/>
<g clip-path="url(#clip0_1_1128)">
<path fill-rule="evenodd" clip-rule="evenodd" d="M149.654 48.6116C150.322 48.6002 150.994 48.6002 151.662 48.6116C151.881 50.5098 152.345 52.3663 152.754 54.2304C154.469 62.3537 156.195 70.4769 157.906 78.6002C157.509 78.6002 157.116 78.6002 156.722 78.6002C155.122 71.0263 153.515 63.4524 151.911 55.8785C151.573 54.2342 151.209 52.5936 150.767 50.9758C150.537 50.1309 150.196 49.3087 149.658 48.6153L149.654 48.6116Z" fill="#318EEE"/>
<path fill-rule="evenodd" clip-rule="evenodd" d="M145.6 48.6193C146.253 48.5928 146.91 48.6117 147.564 48.6041C147.805 48.5738 147.976 48.7746 148.15 48.9148C149.052 49.6991 149.487 50.8661 149.847 51.9838C150.344 53.6168 150.626 55.3066 150.998 56.9737C152.52 64.1838 154.057 71.3902 155.575 78.6004C155.178 78.6004 154.78 78.6004 154.383 78.6004C152.776 71.0189 151.168 63.4336 149.557 55.8522C149.231 54.3215 148.956 52.7605 148.31 51.3283C147.939 50.4948 147.393 49.7181 146.639 49.2028C146.316 48.9679 145.942 48.8239 145.6 48.6193Z" fill="#76C5F7"/>
<path fill-rule="evenodd" clip-rule="evenodd" d="M174.151 48.6987C174.341 48.5661 174.578 48.6078 174.797 48.6002C175.729 48.6191 176.664 48.5774 177.6 48.6267C177.322 48.7593 177.028 48.8427 176.739 48.9487C175.339 49.4565 174.025 50.2256 172.93 51.2486C171.163 52.9043 169.908 55.0223 168.716 57.1251C168.323 57.8298 167.937 58.5383 167.566 59.2582C167.502 59.387 167.406 59.4969 167.306 59.5992C167.369 59.3226 167.495 59.0687 167.618 58.8187C168.356 57.2387 169.091 55.6588 169.901 54.1129C170.543 52.9005 171.218 51.6994 172.069 50.6234C172.655 49.8732 173.353 49.2064 174.155 48.7025L174.151 48.6987ZM153.154 48.604H154.858C154.42 50.0589 154.602 51.6009 154.87 53.071C156.377 60.2698 157.854 67.4724 159.358 74.6712C159.399 74.9326 159.532 75.2205 159.384 75.4706C159.154 75.9556 158.931 76.4405 158.697 76.9217C157.082 69.3289 155.486 61.7323 153.878 54.1432C153.481 52.3246 153.08 50.4794 153.154 48.604Z" fill="#2474DE"/>
<path fill-rule="evenodd" clip-rule="evenodd" d="M169.73 48.6039C170.532 48.6039 171.334 48.5963 172.135 48.6115C171.426 49.7254 170.836 50.9113 170.309 52.1275C169.288 54.4652 168.33 56.837 167.358 59.1975C167.309 59.3111 167.235 59.4096 167.165 59.5082C167.183 59.3718 167.206 59.2391 167.25 59.1103C167.915 57.2008 168.616 55.2988 169.166 53.3475C169.596 51.813 169.886 50.2066 169.734 48.6039H169.73ZM156.384 48.6039C157.023 48.6039 157.657 48.6039 158.296 48.6039C158.051 48.8956 157.787 49.1798 157.624 49.5284C157.264 50.2634 157.193 51.1007 157.208 51.9078C157.242 53.4574 157.613 54.9653 157.91 56.4733C158.741 60.5766 159.577 64.6799 160.408 68.7832C160.609 69.8327 160.861 70.8747 161.025 71.9317C160.794 72.5039 160.512 73.0532 160.245 73.6102C159.064 67.8625 157.884 62.1187 156.703 56.371C156.362 54.6471 155.928 52.9307 155.872 51.1651C155.846 50.2861 156.013 49.3995 156.384 48.6001V48.6039Z" fill="#E85F24"/>
<path fill-rule="evenodd" clip-rule="evenodd" d="M165.52 48.619C166.315 48.5849 167.113 48.6153 167.907 48.6001C168.568 49.2745 168.85 50.2369 168.854 51.1727C168.861 52.6617 168.509 54.1204 168.152 55.5564C167.855 56.7196 167.517 57.8752 167.187 59.027C167.154 59.1634 167.083 59.2884 167.005 59.4059C167.024 59.0194 167.146 58.6481 167.228 58.2768C167.625 56.515 167.97 54.7229 167.985 52.908C167.967 51.7524 167.796 50.4945 167.005 49.6041C166.612 49.1381 166.051 48.888 165.516 48.6228L165.52 48.619ZM158.645 50.9075C158.845 49.9603 159.41 49.0358 160.293 48.6266C161.244 48.5925 162.201 48.5925 163.155 48.6266C162.569 48.8161 161.949 48.9259 161.407 49.2404C160.702 49.6041 160.148 50.2596 159.922 51.0363C159.577 52.1995 159.725 53.4384 159.929 54.613C160.813 59.2278 161.704 63.8464 162.584 68.4612C162.625 68.6089 162.536 68.7453 162.48 68.8779C162.253 69.344 162.042 69.8176 161.808 70.2798C160.817 65.2331 159.829 60.1864 158.842 55.1396C158.552 53.7529 158.348 52.3018 158.645 50.8999V50.9075Z" fill="#8EC089"/>
</g>
<rect x="76.6" y="102.6" width="53" height="53" rx="5" fill="#0C3B7C"/>
<rect x="137.6" y="102.6" width="53" height="53" rx="5" fill="#34E0A1"/>
<path d="M110.953 64.364C110.945 63.677 110.78 62.9979 110.524 62.36C110.325 61.8654 110.097 61.3846 109.872 60.9017C108.088 57.0959 106.216 53.3314 104.259 49.608C103.984 49.0879 103.714 48.5639 103.423 48.0535C103.136 47.555 102.804 47.0722 102.372 46.6816C101.685 46.0398 100.763 45.657 99.8164 45.6001H99.3814C98.4071 45.6472 97.4548 46.0476 96.7572 46.7149C96.3422 47.0996 96.0214 47.5687 95.7428 48.0555C95.4561 48.5599 95.1894 49.0742 94.9188 49.5864C93.6037 52.0831 92.3286 54.6013 91.0937 57.1352C90.356 58.6524 89.6262 60.1716 88.9226 61.7045C88.6319 62.3424 88.3672 63.0038 88.269 63.7006C88.0846 64.8763 88.3492 66.1128 88.9907 67.1217C89.544 67.999 90.374 68.7056 91.3423 69.1158C92.0941 69.4338 92.9261 69.579 93.744 69.5319C94.8426 69.475 95.9031 69.0884 96.8333 68.5231C97.8698 67.8989 98.7579 67.0706 99.5839 66.2031C100.352 67.0137 101.174 67.7871 102.124 68.3935C103.04 68.9843 104.087 69.4122 105.185 69.5123C106.38 69.634 107.615 69.3455 108.617 68.6938C109.499 68.1246 110.195 67.2865 110.584 66.3268C110.837 65.7046 110.965 65.0333 110.953 64.364ZM99.5899 63.9106C99.2892 63.5652 99.0266 63.1922 98.7599 62.8213C98.3129 62.1814 97.9079 61.5102 97.5811 60.8036C97.3145 60.2167 97.098 59.6004 97.0158 58.9606C96.9556 58.4522 96.9697 57.9223 97.1601 57.4394C97.3305 56.988 97.6573 56.5954 98.0723 56.3364C99.0606 55.7122 100.47 55.7789 101.366 56.5366C101.819 56.9154 102.09 57.4747 102.158 58.0479C102.246 58.8114 102.07 59.5788 101.797 60.2913C101.282 61.6142 100.468 62.7977 99.5879 63.9106H99.5899ZM109.291 65.5299C109.026 66.4229 108.391 67.2022 107.561 67.6536C106.825 68.0559 105.945 68.1953 105.115 68.0599C104.056 67.8989 103.108 67.3494 102.286 66.7016C101.683 66.2267 101.138 65.683 100.616 65.1236C101.44 64.1049 102.214 63.0392 102.808 61.8733C103.325 60.8526 103.718 59.7476 103.754 58.5994C103.774 57.8712 103.635 57.1293 103.287 56.4816C102.832 55.616 102.018 54.9507 101.083 54.6288C100.211 54.3245 99.2411 54.2971 98.3509 54.5444C97.511 54.7779 96.7451 55.2706 96.2199 55.9556C95.7568 56.5523 95.4942 57.2863 95.432 58.0302C95.3378 59.1019 95.6124 60.1716 96.0274 61.1588C96.6449 62.5995 97.551 63.9028 98.5514 65.1118C98.1024 65.6221 97.6092 66.0971 97.0859 66.5368C96.274 67.21 95.3438 67.7949 94.2913 68.0187C93.4393 68.2051 92.5211 68.1129 91.7412 67.7262C90.8271 67.2807 90.1254 66.4406 89.8608 65.4749C89.6583 64.7644 89.7024 63.9989 89.943 63.3041C90.1435 62.729 90.4141 62.1814 90.6687 61.6279C92.4329 57.8634 94.2853 54.1381 96.2199 50.454C96.5086 49.9064 96.7932 49.3548 97.098 48.8151C97.3466 48.3813 97.6373 47.9534 98.0482 47.6492C98.4873 47.3136 99.0446 47.1291 99.6019 47.1428C100.179 47.1369 100.753 47.345 101.196 47.7081C101.633 48.0634 101.927 48.5482 102.192 49.031C102.789 50.1301 103.365 51.245 103.94 52.3559C105.58 55.5356 107.158 58.7446 108.667 61.9832C108.896 62.4857 109.141 62.9862 109.293 63.5161C109.481 64.1717 109.487 64.8783 109.293 65.5318L109.291 65.5299Z" fill="white"/>
<path d="M91.0296 72.4978C91.5228 72.3878 92.0641 72.7078 92.1924 73.1867C92.3508 73.6774 92.034 74.2485 91.5308 74.3918C91.0376 74.5626 90.4522 74.2662 90.2899 73.7853C90.1355 73.379 90.2999 72.8903 90.6688 72.6489C90.777 72.5743 90.9033 72.5252 91.0316 72.4978H91.0296Z" fill="white"/>
<path d="M94.3656 75.6692C94.6623 75.3532 95.0813 75.155 95.5144 75.0902C95.801 75.0627 96.0937 75.0804 96.3744 75.1432C96.3704 75.5887 96.3744 76.0343 96.3744 76.4798C95.9314 76.3679 95.4522 76.3444 95.0172 76.5014C94.7826 76.5858 94.5661 76.7232 94.3957 76.9018C94.3576 76.9332 94.3676 76.9842 94.3636 77.0274C94.3656 78.2718 94.3636 79.5182 94.3636 80.7645C94.3596 80.8116 94.3717 80.8666 94.3496 80.9117C93.8584 80.9235 93.3673 80.9137 92.8761 80.9156C92.8761 79.0176 92.8761 77.1177 92.8761 75.2197C93.2891 75.2197 93.7041 75.2197 94.117 75.2197C94.2073 75.2138 94.3055 75.2609 94.3376 75.3473C94.3696 75.4513 94.3596 75.5632 94.3616 75.6692H94.3656Z" fill="white"/>
<path d="M104.957 75.6731C105.35 75.2747 105.919 75.0784 106.478 75.0784C107.07 75.0647 107.675 75.2354 108.13 75.6103C108.433 75.8419 108.653 76.1677 108.756 76.5308C108.886 76.9744 108.874 77.4416 108.872 77.8969C108.872 78.9018 108.872 79.9087 108.872 80.9137C108.377 80.9137 107.882 80.9176 107.386 80.9117C107.386 79.9068 107.386 78.9018 107.386 77.895C107.386 77.522 107.404 77.1177 107.202 76.786C107.06 76.5465 106.781 76.4288 106.51 76.4013C105.997 76.3208 105.46 76.521 105.107 76.8881C105.069 76.9254 105.037 76.9725 105.041 77.0274C105.037 77.1825 105.061 77.3395 105.047 77.4946C105.027 77.7065 105.057 77.9165 105.051 78.1285C105.043 78.5289 105.045 78.9274 105.051 79.3278C105.023 79.8557 105.071 80.3876 105.039 80.9137C104.546 80.9137 104.052 80.9137 103.559 80.9137C103.559 79.0137 103.555 77.1157 103.559 75.2158C103.94 75.2178 104.323 75.2158 104.704 75.2158C104.802 75.2099 104.91 75.2629 104.937 75.361C104.961 75.4611 104.953 75.5671 104.955 75.6712L104.957 75.6731Z" fill="white"/>
<path d="M90.4863 80.9142C90.4863 79.0142 90.4823 77.1163 90.4863 75.2163C90.9775 75.2163 91.4686 75.2163 91.9598 75.2163C91.9638 77.1163 91.9598 79.0142 91.9598 80.9142C91.4686 80.9142 90.9755 80.9142 90.4823 80.9142H90.4863Z" fill="white"/>
<path d="M89.5702 75.2182C89.1812 75.2182 88.7903 75.2182 88.4014 75.2162C88.2991 75.2162 88.1668 75.2201 88.1167 75.3261C88.0706 75.4341 88.0886 75.5558 88.0846 75.6696C87.7599 75.332 87.3028 75.1318 86.8357 75.0867C86.1119 75.0239 85.3622 75.2201 84.7808 75.65C84.3016 75.9954 83.9488 76.4979 83.7624 77.0475C83.6742 77.3065 83.628 77.5774 83.6 77.8483V78.2388C83.6421 79.0553 84.013 79.862 84.6585 80.3881C85.1456 80.7924 85.7731 81.0181 86.4086 81.0574H86.7394C87.2426 81.024 87.7398 80.8199 88.0846 80.4528C88.0886 80.5686 88.0706 80.6903 88.1147 80.8002C88.1608 80.8905 88.2691 80.9141 88.3633 80.9101C88.7642 80.9101 89.1672 80.9101 89.5702 80.9101C89.5702 79.0122 89.5702 77.1142 89.5702 75.2162V75.2182ZM88.0385 79.1397C87.7378 79.493 87.2687 79.7011 86.7996 79.6854C86.2964 79.6893 85.7751 79.5009 85.4484 79.1142C85.1316 78.7452 85.0354 78.233 85.1076 77.7639C85.1617 77.385 85.3582 77.02 85.6709 76.7864C85.9536 76.5685 86.3104 76.4547 86.6673 76.4311C87.1985 76.386 87.7599 76.6156 88.0806 77.0357C88.0987 77.6539 88.0806 78.2761 88.0886 78.8964C88.0826 78.9788 88.1067 79.0769 88.0385 79.1397Z" fill="white"/>
<path d="M102.709 76.847C102.481 76.2994 102.074 75.8224 101.559 75.5123C101.029 75.1885 100.392 75.0432 99.7704 75.0844C99.2792 75.1159 98.8001 75.3219 98.4593 75.6713C98.4593 74.6075 98.4593 73.5437 98.4593 72.4799C97.9641 72.4799 97.4669 72.4779 96.9717 72.4799C96.9737 75.2905 96.9677 78.1012 96.9757 80.9119C97.3867 80.9119 97.7977 80.9119 98.2067 80.9119C98.3089 80.9197 98.4192 80.8648 98.4472 80.7647C98.4673 80.6626 98.4593 80.5566 98.4613 80.4506C98.8061 80.8255 99.3113 81.0296 99.8205 81.0591H100.123C100.947 81.0178 101.755 80.641 102.272 80.007C102.996 79.1375 103.138 77.8735 102.709 76.845V76.847ZM100.977 79.2435C100.644 79.5458 100.185 79.6891 99.7363 79.6851C99.2672 79.695 98.8001 79.4849 98.5034 79.1297C98.4673 79.0924 98.4553 79.0433 98.4573 78.9943C98.4573 78.3426 98.4573 77.691 98.4573 77.0393C98.7419 76.6762 99.197 76.4486 99.6641 76.427C100.137 76.4132 100.632 76.5487 100.979 76.8764C101.31 77.1767 101.47 77.6262 101.46 78.0619C101.47 78.4977 101.304 78.9452 100.975 79.2455L100.977 79.2435Z" fill="white"/>
<path d="M114.936 76.1425C114.307 75.3574 113.228 74.9609 112.224 75.1062C111.805 75.1709 111.406 75.3672 111.113 75.6695C111.109 74.6056 111.113 73.5418 111.113 72.478C110.618 72.478 110.125 72.478 109.63 72.478C109.63 75.2887 109.63 78.0993 109.63 80.91C110.021 80.912 110.412 80.91 110.801 80.912C110.903 80.912 111.031 80.9061 111.083 80.804C111.129 80.6941 111.111 80.5705 111.115 80.4527C111.458 80.8197 111.951 81.0219 112.452 81.0572H112.787C113.601 81.014 114.399 80.6411 114.914 80.017C115.335 79.5184 115.564 78.8825 115.6 78.2407V77.8599C115.554 77.2397 115.339 76.6253 114.936 76.1386V76.1425ZM113.78 79.0807C113.387 79.5753 112.695 79.7598 112.082 79.6637C111.707 79.591 111.346 79.3928 111.123 79.0847C111.099 78.8452 111.121 78.6038 111.113 78.3624C111.119 77.9207 111.101 77.4772 111.121 77.0355C111.346 76.7313 111.707 76.537 112.078 76.4565C112.763 76.3329 113.561 76.5978 113.906 77.2181C114.221 77.7912 114.191 78.5586 113.78 79.0807Z" fill="white"/>
<path d="M98.7591 137.99L94.0205 137.985V132.321C94.0205 131.111 94.4902 130.481 95.5262 130.338H98.7591C101.065 130.338 102.556 131.791 102.556 134.143C102.556 136.495 101.102 137.988 98.7591 137.99V137.99ZM94.0205 122.713V121.222C94.0205 119.917 94.5726 119.297 95.7834 119.217H98.2094C100.288 119.217 101.534 120.46 101.534 122.543C101.534 124.128 100.68 125.98 98.2849 125.98H94.0208V122.713L94.0205 122.713ZM104.81 128.365L103.953 127.884L104.701 127.245C105.572 126.497 107.03 124.815 107.03 121.913C107.03 117.469 103.582 114.602 98.247 114.602H92.1586V114.6H91.4649C89.8837 114.659 88.6167 115.945 88.6 117.535V142.753H98.3673C104.298 142.753 108.125 139.526 108.125 134.527C108.125 131.835 106.889 129.535 104.81 128.365Z" fill="white"/>
<path d="M110.669 139.27C110.669 137.343 112.223 135.785 114.138 135.785C116.053 135.785 117.619 137.343 117.619 139.27C117.619 141.196 116.058 142.755 114.138 142.755C112.218 142.755 110.669 141.194 110.669 139.27Z" fill="#00BAFC"/>
<path d="M177.065 125.426L179.6 122.656H173.982C168.023 118.581 160.191 118.581 154.233 122.656H148.6L151.135 125.426C147.982 128.331 147.77 133.254 150.66 136.421C153.551 139.589 158.451 139.802 161.604 136.898C161.608 136.894 161.613 136.89 161.617 136.886L164.1 139.6L166.582 136.888C168.012 138.222 169.892 138.963 171.844 138.96C176.121 138.96 179.592 135.476 179.592 131.178C179.595 128.989 178.677 126.9 177.065 125.427V125.426ZM156.353 136.444C153.458 136.444 151.112 134.086 151.112 131.178C151.112 128.269 153.458 125.911 156.353 125.911C159.248 125.911 161.595 128.269 161.595 131.178C161.595 134.086 159.248 136.444 156.353 136.444ZM164.1 131.026C164.1 127.56 161.591 124.587 158.282 123.315C162.005 121.757 166.194 121.757 169.917 123.315C166.608 124.587 164.1 127.561 164.1 131.026ZM171.844 136.444C168.949 136.444 166.602 134.086 166.602 131.178C166.602 128.269 168.949 125.911 171.844 125.911C174.738 125.911 177.085 128.269 177.085 131.178C177.085 134.086 174.738 136.444 171.844 136.444ZM171.844 128.417C170.326 128.417 169.096 129.653 169.096 131.178C169.096 132.703 170.326 133.939 171.844 133.939C173.361 133.939 174.592 132.703 174.592 131.178C174.592 129.653 173.362 128.417 171.844 128.417H171.844ZM159.101 131.178C159.101 132.702 157.871 133.939 156.354 133.939C154.836 133.939 153.606 132.703 153.605 131.178C153.605 129.654 154.835 128.417 156.353 128.417H156.353C157.871 128.417 159.101 129.653 159.101 131.178Z" fill="black"/>
<defs>
<filter id="filter0_d_1_1128" x="-2.28882e-05" y="9.91821e-05" width="236.2" height="241.2" filterUnits="userSpaceOnUse" color-interpolation-filters="sRGB">
<feFlood flood-opacity="0" result="BackgroundImageFix"/>
<feColorMatrix in="SourceAlpha" type="matrix" values="0 0 0 0 0 0 0 0 0 0 0 0 0 0 0 0 0 0 127 0" result="hardAlpha"/>
<feOffset dx="-15" dy="21"/>
<feGaussianBlur stdDeviation="19.3"/>
<feComposite in2="hardAlpha" operator="out"/>
<feColorMatrix type="matrix" values="0 0 0 0 0.75 0 0 0 0 0.128125 0 0 0 0 0.289742 0 0 0 0.28 0"/>
<feBlend mode="normal" in2="BackgroundImageFix" result="effect1_dropShadow_1_1128"/>
<feBlend mode="normal" in="SourceGraphic" in2="effect1_dropShadow_1_1128" result="shape"/>
</filter>
<clipPath id="clip0_1_1128">
<rect width="32" height="30" fill="white" transform="translate(145.6 48.6001)"/>
</clipPath>
</defs>
</svg>
