<svg width="289" height="248" viewBox="0 0 289 248" fill="none" xmlns="http://www.w3.org/2000/svg">
<g filter="url(#filter0_d_1_1005)">
<rect x="9.59998" y="17.6001" width="211" height="170" rx="17" fill="white"/>
</g>
<path d="M193.822 35.6001H179.217C177.996 35.6001 177.006 36.5945 177.006 37.8211V48.131C177.006 49.3576 177.996 50.352 179.217 50.352H193.822C195.043 50.352 196.033 49.3576 196.033 48.131V37.8211C196.033 36.5945 195.043 35.6001 193.822 35.6001Z" fill="#2F2352"/>
<path d="M189.239 43.675C189.061 43.675 188.883 43.6067 188.747 43.4702L184.396 39.0991C184.125 38.826 184.125 38.3835 184.396 38.1111C184.668 37.838 185.109 37.838 185.38 38.1111L189.73 42.4822C190.002 42.7553 190.002 43.1977 189.73 43.4702C189.594 43.6067 189.417 43.675 189.239 43.675Z" fill="white"/>
<path d="M184.888 48.0461C184.71 48.0461 184.532 47.9778 184.396 47.8413C184.125 47.5682 184.125 47.1257 184.396 46.8533L188.747 42.4822C189.019 42.2091 189.459 42.2091 189.73 42.4822C190.002 42.7553 190.002 43.1977 189.73 43.4702L185.38 47.8413C185.244 47.9778 185.066 48.0461 184.888 48.0461Z" fill="white"/>
<path d="M154.811 50.3521H169.416C170.637 50.3521 171.627 49.3577 171.627 48.131V37.8212C171.627 36.5945 170.637 35.6001 169.416 35.6001H154.811C153.59 35.6001 152.6 36.5945 152.6 37.8212V48.131C152.6 49.3577 153.59 50.3521 154.811 50.3521Z" fill="#2F2352"/>
<path d="M159.395 42.2773C159.572 42.2773 159.75 42.3456 159.886 42.4822L164.237 46.8533C164.509 47.1264 164.509 47.5688 164.237 47.8413C163.965 48.1144 163.524 48.1144 163.253 47.8413L158.903 43.4702C158.631 43.1971 158.631 42.7546 158.903 42.4822C159.039 42.3456 159.217 42.2773 159.395 42.2773Z" fill="white"/>
<path d="M163.745 37.9062C163.923 37.9062 164.101 37.9745 164.237 38.1111C164.509 38.3842 164.509 38.8267 164.237 39.0991L159.886 43.4702C159.614 43.7433 159.174 43.7433 158.903 43.4702C158.631 43.1971 158.631 42.7546 158.903 42.4822L163.253 38.1111C163.389 37.9745 163.567 37.9062 163.745 37.9062Z" fill="white"/>
<g clip-path="url(#clip0_1_1005)">
<path d="M108.305 108.859C107.83 108.488 107.533 107.993 107.413 107.374H108.408C108.513 107.731 108.713 108.019 109.006 108.237C109.299 108.452 109.64 108.559 110.028 108.559C110.68 108.559 111.187 108.273 111.55 107.701C111.908 107.134 112.096 106.325 112.11 105.277H112.093C111.926 105.666 111.645 105.98 111.251 106.216C110.852 106.449 110.402 106.565 109.903 106.565C109.156 106.565 108.535 106.318 108.038 105.823C107.545 105.328 107.299 104.707 107.299 103.961C107.299 103.214 107.562 102.539 108.088 102.033C108.609 101.524 109.272 101.269 110.077 101.269C110.668 101.269 111.188 101.421 111.637 101.727C112.086 102.036 112.431 102.473 112.67 103.038C112.927 103.635 113.056 104.359 113.056 105.211C113.056 106.54 112.789 107.572 112.257 108.307C111.724 109.046 110.977 109.416 110.017 109.416C109.35 109.416 108.78 109.23 108.305 108.859V108.859ZM111.365 105.207C111.709 104.875 111.881 104.458 111.881 103.956C111.881 103.454 111.709 103.024 111.365 102.678C111.017 102.329 110.591 102.154 110.087 102.154C109.583 102.154 109.158 102.327 108.81 102.673C108.462 103.015 108.288 103.434 108.288 103.929C108.288 104.423 108.457 104.866 108.794 105.201C109.131 105.536 109.557 105.703 110.071 105.703C110.586 105.703 111.021 105.538 111.365 105.207H111.365Z" fill="black"/>
<path d="M129.012 102.447H128.99L126.913 103.949V102.911L129 101.404H129.957V109.284H129.012V102.447Z" fill="black"/>
<path d="M132.561 108.312C132.054 107.587 131.8 106.597 131.8 105.341C131.8 104.084 132.054 103.109 132.561 102.381C133.08 101.642 133.79 101.273 134.692 101.273C135.594 101.273 136.303 101.64 136.818 102.376C137.321 103.1 137.573 104.087 137.573 105.335C137.573 106.584 137.321 107.581 136.818 108.306C136.307 109.045 135.598 109.415 134.692 109.415C133.786 109.415 133.072 109.047 132.561 108.312ZM136.1 107.683C136.427 107.119 136.589 106.338 136.589 105.341C136.589 104.343 136.425 103.581 136.095 103.009C135.758 102.427 135.29 102.136 134.692 102.136C134.094 102.136 133.625 102.429 133.284 103.015C132.951 103.586 132.784 104.359 132.784 105.335C132.784 106.311 132.949 107.115 133.279 107.684C133.616 108.266 134.087 108.557 134.692 108.557C135.297 108.557 135.766 108.266 136.1 107.684V107.683Z" fill="black"/>
<path opacity="0.26" d="M154.478 98.5283H88.9673V112.224H154.478V98.5283Z" fill="#ED3C6A"/>
<path d="M84.2843 98.4634H91.9364C93.5869 98.4634 94.9269 99.8095 94.9269 101.468V109.155C94.9269 110.813 93.5869 112.159 91.9364 112.159H84.2843C82.6338 112.159 81.2938 110.813 81.2938 109.155V101.468C81.2938 99.8095 82.6338 98.4634 84.2843 98.4634Z" fill="#ED3C6A"/>
<path d="M150.652 98.4634H158.304C159.955 98.4634 161.295 99.8095 161.295 101.468V109.155C161.295 110.813 159.955 112.159 158.304 112.159H150.652C149.001 112.159 147.661 110.813 147.661 109.155V101.468C147.661 99.8095 149.001 98.4634 150.652 98.4634Z" fill="#ED3C6A"/>
<g opacity="0.39">
<path d="M39.5377 84.9791H40.4779C40.927 84.9791 41.2948 84.8479 41.5813 84.5862C41.8678 84.3278 42.0104 83.9984 42.0104 83.5981C42.0104 83.1979 41.8818 82.8812 41.6246 82.6483C41.3528 82.408 40.9743 82.2882 40.4885 82.2882C40.0394 82.2882 39.6729 82.408 39.3904 82.6483C39.1079 82.8886 38.9446 83.2159 38.9013 83.631H37.9611C38.0158 82.9609 38.273 82.4281 38.7328 82.0311C39.1965 81.6342 39.7962 81.436 40.5318 81.436C41.2675 81.436 41.8239 81.6275 42.2876 82.0097C42.7587 82.3919 42.9946 82.8779 42.9946 83.4676C42.9946 83.959 42.8493 84.372 42.5595 84.7073C42.2696 85.042 41.8785 85.2535 41.3854 85.3406V85.3627C41.9798 85.3988 42.4529 85.5882 42.804 85.9303C43.1552 86.2764 43.3311 86.7255 43.3311 87.2791C43.3311 87.9492 43.0632 88.5007 42.5268 88.9338C41.9978 89.3636 41.3434 89.5784 40.5645 89.5784C39.7856 89.5784 39.0972 89.3729 38.5968 88.9613C38.1037 88.557 37.8392 88.0241 37.8032 87.3614H38.7434C38.7867 87.7731 38.968 88.1004 39.2871 88.3441C39.613 88.5991 40.0354 88.7263 40.5538 88.7263C41.0722 88.7263 41.4993 88.5931 41.8365 88.328C42.1697 88.0623 42.3363 87.7236 42.3363 87.3126C42.3363 86.85 42.173 86.4845 41.8472 86.2148C41.5247 85.9457 41.0829 85.8105 40.5212 85.8105H39.5377V84.9804V84.9791Z" fill="black"/>
<path d="M45.1415 88.4736C44.6344 87.7494 44.3806 86.7593 44.3806 85.5029C44.3806 84.2465 44.6344 83.2712 45.1415 82.5436C45.6599 81.8046 46.3702 81.4351 47.2724 81.4351C48.1746 81.4351 48.8829 81.8026 49.3973 82.5382C49.9011 83.2625 50.153 84.2492 50.153 85.4976C50.153 86.746 49.9011 87.7433 49.3973 88.4683C48.8863 89.2073 48.178 89.5768 47.2724 89.5768C46.3669 89.5768 45.6526 89.2093 45.1415 88.4736ZM48.6797 87.8458C49.0055 87.2815 49.1688 86.501 49.1688 85.5036C49.1688 84.5062 49.0042 83.7438 48.6744 83.1721C48.3372 82.5897 47.8701 82.2986 47.2718 82.2986C46.6734 82.2986 46.2043 82.5918 45.8638 83.1775C45.5306 83.7491 45.3641 84.5223 45.3641 85.4982C45.3641 86.4742 45.5286 87.2781 45.8585 87.8464C46.1956 88.4288 46.6667 88.72 47.2718 88.72C47.8768 88.72 48.3459 88.4288 48.6797 87.8464V87.8458Z" fill="black"/>
</g>
<g opacity="0.39">
<path d="M62.9438 84.9786H63.884C64.3331 84.9786 64.7009 84.8474 64.9874 84.5857C65.274 84.3273 65.4165 83.998 65.4165 83.5977C65.4165 83.1974 65.2879 82.8807 65.0307 82.6478C64.7589 82.4075 64.3804 82.2877 63.8947 82.2877C63.4455 82.2877 63.0791 82.4075 62.7965 82.6478C62.514 82.8881 62.3508 83.2154 62.3075 83.6305H61.3673C61.4219 82.9604 61.6791 82.4276 62.1389 82.0306C62.6026 81.6337 63.2023 81.4355 63.938 81.4355C64.6736 81.4355 65.23 81.627 65.6937 82.0092C66.1648 82.3914 66.4 82.8774 66.4 83.4671C66.4 83.9585 66.2548 84.3715 65.9649 84.7068C65.6751 85.0415 65.2839 85.2531 64.7909 85.3401V85.3622C65.3852 85.3983 65.8577 85.5877 66.2095 85.9298C66.5613 86.2759 66.7365 86.725 66.7365 87.2786C66.7365 87.9487 66.4687 88.5002 65.9323 88.9333C65.4032 89.3631 64.7489 89.5779 63.9699 89.5779C63.191 89.5779 62.502 89.3724 62.0023 88.9608C61.5092 88.5565 61.2447 88.0236 61.2087 87.3609H62.1489C62.1922 87.7726 62.3734 88.0999 62.6926 88.3436C63.0184 88.5986 63.4409 88.7258 63.9593 88.7258C64.4777 88.7258 64.9048 88.5926 65.242 88.3275C65.5751 88.0618 65.7417 87.7231 65.7417 87.3121C65.7417 86.8495 65.5785 86.4841 65.2526 86.2143C64.9301 85.9452 64.4877 85.81 63.9266 85.81H62.9431V84.9799L62.9438 84.9786Z" fill="black"/>
<path d="M69.9336 82.6088H69.9116L67.8353 84.1103V83.0727L69.9223 81.5659H70.8791V89.4453H69.9336V82.6088Z" fill="black"/>
</g>
<path d="M88.6868 82.6088H88.6648L86.5885 84.1103V83.0727L88.6754 81.5659H89.6323V89.4453H88.6868V82.6088Z" fill="black"/>
<path d="M44.5811 70.8194H43.3517V66.3485H43.3151L41.524 70.7551H40.6558L38.8647 66.3485H38.828V70.8194H37.6V64.1958H39.1992L41.0722 68.8915H41.1089L42.9819 64.1958H44.5811V70.8194Z" fill="black"/>
<path d="M46.0617 70.2089C45.6173 69.7437 45.3947 69.1044 45.3947 68.2905C45.3947 67.4765 45.6186 66.8479 46.0664 66.3767C46.5141 65.9115 47.1172 65.6792 47.8755 65.6792C48.6337 65.6792 49.2401 65.9115 49.6845 66.3767C50.1323 66.8446 50.3562 67.4825 50.3562 68.2905C50.3562 69.0984 50.1336 69.7484 49.6892 70.2136C49.2474 70.6755 48.6431 70.9064 47.8755 70.9064C47.1078 70.9064 46.5062 70.6742 46.0617 70.2089ZM48.7024 69.4606C48.9003 69.1821 48.9996 68.7918 48.9996 68.2898C48.9996 67.7878 48.8989 67.4055 48.6977 67.1237C48.4998 66.8453 48.2253 66.706 47.8755 66.706C47.5256 66.706 47.2464 66.8453 47.0485 67.1237C46.8473 67.4055 46.7467 67.7938 46.7467 68.2898C46.7467 68.7858 46.8473 69.1821 47.0485 69.4606C47.2464 69.7357 47.5223 69.8736 47.8755 69.8736C48.2286 69.8736 48.5045 69.7357 48.7024 69.4606Z" fill="black"/>
<path d="M62.8505 70.8197V65.3394H60.9222V64.1968H66.1629V65.3394H64.2298V70.8197H62.8499H62.8505Z" fill="black"/>
<path d="M71.1663 70.8198H69.8777V69.9067H69.8503C69.5851 70.5648 69.0581 70.8934 68.2691 70.8934C67.7181 70.8934 67.2777 70.7254 66.9485 70.3887C66.6107 70.0493 66.4414 69.5888 66.4414 69.0071V65.7666H67.7754V68.7273C67.7754 69.064 67.8654 69.3237 68.0453 69.5078C68.2192 69.6885 68.4624 69.7789 68.7762 69.7789C69.0901 69.7789 69.3446 69.6751 69.5392 69.467C69.7344 69.2588 69.8317 68.985 69.8317 68.6456V65.7679H71.1657V70.8211L71.1663 70.8198Z" fill="black"/>
<path d="M84.4189 70.8194H83.1169L81.3718 64.1958H82.8017L83.8392 68.9926H83.8758L85.1092 64.1958H86.2746L87.508 68.9926H87.5446L88.5861 64.1958H90.0161L88.2663 70.8194H86.9643L85.7122 66.2937H85.6709L84.4189 70.8194Z" fill="black"/>
<path d="M94.8089 69.2773C94.7356 69.7666 94.4904 70.1602 94.0733 70.4568C93.6562 70.7567 93.1411 70.9066 92.5288 70.9066C91.7645 70.9066 91.1615 70.6757 90.7197 70.2138C90.2812 69.7519 90.062 69.118 90.062 68.3134C90.062 67.5088 90.2799 66.8689 90.7157 66.395C91.1541 65.9177 91.7418 65.6787 92.4795 65.6787C93.2171 65.6787 93.7801 65.905 94.2066 66.3581C94.6364 66.8113 94.8509 67.4218 94.8509 68.1896V68.6026H91.3787V68.6849C91.3787 69.0491 91.4866 69.3443 91.7032 69.5705C91.9197 69.7941 92.2029 69.9059 92.5527 69.9059C92.8053 69.9059 93.0232 69.849 93.2064 69.7359C93.3923 69.6254 93.5169 69.4728 93.5809 69.2767H94.8103L94.8089 69.2773ZM91.7292 66.9827C91.5279 67.1848 91.4153 67.4479 91.3913 67.7719H93.5616C93.5496 67.4412 93.4456 67.1768 93.2511 66.978C93.0558 66.7792 92.8033 66.6794 92.4928 66.6794C92.1823 66.6794 91.9337 66.7805 91.7298 66.9827H91.7292Z" fill="black"/>
<path d="M106.983 70.8197V65.3394H105.055V64.1968H110.296V65.3394H108.363V70.8197H106.983Z" fill="black"/>
<path d="M110.574 65.7665H111.863V66.6708H111.89C112.186 66.0189 112.725 65.6929 113.508 65.6929C114.065 65.6929 114.504 65.8595 114.824 66.1929C115.14 66.5263 115.299 66.9888 115.299 67.5792V70.8197H113.965V67.859C113.965 67.5223 113.879 67.2639 113.709 67.0832C113.535 66.8998 113.292 66.8081 112.978 66.8081C112.664 66.8081 112.401 66.9118 112.206 67.12C112.008 67.3282 111.908 67.6006 111.908 67.9373V70.8197H110.574V65.7665Z" fill="black"/>
<path d="M128.282 70.8194V64.1958H132.6V65.3384H129.662V67.115H132.344V68.2121H129.662V70.8194H128.282Z" fill="black"/>
<path d="M133.317 65.7661H134.605V66.6705H134.633C134.807 66.0278 135.205 65.7065 135.829 65.7065C135.979 65.7065 136.103 65.7233 136.204 65.7567V66.9456C136.085 66.8907 135.925 66.8632 135.724 66.8632C135.386 66.8632 135.123 66.963 134.934 67.1618C134.745 67.3606 134.651 67.6377 134.651 67.9925V70.82H133.317V65.7668V65.7661Z" fill="black"/>
<path d="M150.437 68.9332C150.468 69.2023 150.611 69.4212 150.867 69.5899C151.12 69.7553 151.431 69.8376 151.799 69.8376C152.168 69.8376 152.464 69.7579 152.695 69.5986C152.924 69.4426 153.037 69.2418 153.037 68.9975C153.037 68.7833 152.952 68.6106 152.782 68.4787C152.611 68.3469 152.326 68.2371 151.927 68.1481L151.068 67.96C149.859 67.6996 149.255 67.0831 149.255 66.1104C149.255 65.5047 149.491 65.0133 149.963 64.6371C150.432 64.267 151.036 64.0815 151.777 64.0815C152.517 64.0815 153.147 64.2636 153.604 64.6278C154.056 64.9886 154.287 65.4705 154.299 66.0736H153.006C152.985 65.7952 152.862 65.5749 152.636 65.413C152.414 65.2536 152.129 65.1746 151.782 65.1746C151.435 65.1746 151.167 65.2496 150.96 65.3996C150.75 65.5495 150.645 65.747 150.645 65.9913C150.645 66.1935 150.73 66.3588 150.901 66.4873C151.068 66.6098 151.342 66.7156 151.723 66.8039L152.522 66.974C153.183 67.1145 153.664 67.3348 153.966 67.6346C154.268 67.9312 154.419 68.3321 154.419 68.8375C154.419 69.4801 154.178 69.9895 153.697 70.3657C153.216 70.7453 152.566 70.9347 151.746 70.9347C150.927 70.9347 150.319 70.7573 149.85 70.4025C149.377 70.0444 149.131 69.5551 149.109 68.9339H150.439L150.437 68.9332Z" fill="black"/>
<path d="M155.445 70.4615C155.122 70.177 154.96 69.8115 154.96 69.3643C154.96 68.9172 155.131 68.5504 155.472 68.29C155.807 68.0363 156.298 67.889 156.943 67.8495L158.2 67.7712V67.4365C158.2 67.1949 158.122 67.0081 157.967 66.8762C157.812 66.7477 157.595 66.6835 157.318 66.6835C157.08 66.6835 156.881 66.7417 156.72 66.8582C156.561 66.9713 156.465 67.1212 156.432 67.308H155.212C155.23 66.8247 155.437 66.4331 155.833 66.1332C156.232 65.83 156.746 65.6787 157.373 65.6787C158.001 65.6787 158.537 65.832 158.926 66.1379C159.316 66.4438 159.511 66.8495 159.511 67.3542V70.8196H158.223V70.0391H158.195C158.062 70.2995 157.851 70.5056 157.565 70.6589C157.288 70.8055 156.985 70.8792 156.656 70.8792C156.165 70.8792 155.761 70.7399 155.445 70.4615ZM157.876 69.6401C158.092 69.4627 158.2 69.2378 158.2 68.9654V68.5939L157.145 68.6675C156.575 68.7043 156.29 68.9138 156.29 69.2961C156.29 69.4828 156.364 69.6294 156.51 69.7365C156.653 69.847 156.846 69.9019 157.09 69.9019C157.404 69.9019 157.666 69.8148 157.876 69.6401Z" fill="black"/>
<path d="M172.326 68.9332C172.356 69.2023 172.5 69.4212 172.755 69.5899C173.008 69.7553 173.319 69.8376 173.688 69.8376C174.056 69.8376 174.351 69.7579 174.583 69.5986C174.812 69.4426 174.926 69.2418 174.926 68.9975C174.926 68.7833 174.84 68.6106 174.67 68.4787C174.499 68.3469 174.215 68.2371 173.816 68.1481L172.957 67.96C171.747 67.6996 171.143 67.0831 171.143 66.1104C171.143 65.5047 171.379 65.0133 171.851 64.6371C172.32 64.267 172.925 64.0815 173.665 64.0815C174.405 64.0815 175.036 64.2636 175.493 64.6278C175.944 64.9886 176.175 65.4705 176.187 66.0736H174.894C174.872 65.7952 174.749 65.5749 174.524 65.413C174.301 65.2536 174.017 65.1746 173.67 65.1746C173.322 65.1746 173.055 65.2496 172.847 65.3996C172.638 65.5495 172.532 65.747 172.532 65.9913C172.532 66.1935 172.618 66.3588 172.788 66.4873C172.955 66.6098 173.23 66.7156 173.61 66.8039L174.41 66.974C175.071 67.1145 175.552 67.3348 175.854 67.6346C176.156 67.9312 176.306 68.3321 176.306 68.8375C176.306 69.4801 176.066 69.9895 175.585 70.3657C175.104 70.7453 174.453 70.9347 173.634 70.9347C172.814 70.9347 172.206 70.7573 171.737 70.4025C171.265 70.0444 171.018 69.5551 170.997 68.9339H172.326L172.326 68.9332Z" fill="black"/>
<path d="M181.756 70.8198H180.467V69.9067H180.44C180.174 70.5648 179.647 70.8934 178.858 70.8934C178.307 70.8934 177.867 70.7254 177.538 70.3887C177.2 70.0493 177.031 69.5888 177.031 69.0071V65.7666H178.365V68.7273C178.365 69.064 178.455 69.3237 178.634 69.5078C178.808 69.6885 179.052 69.7789 179.365 69.7789C179.679 69.7789 179.934 69.6751 180.128 69.467C180.324 69.2588 180.421 68.985 180.421 68.6456V65.7679H181.755V70.8211L181.756 70.8198Z" fill="black"/>
<path d="M107.565 83.9031C107.565 83.215 107.812 82.642 108.304 82.1828C108.797 81.7276 109.413 81.5 110.152 81.5C110.852 81.5 111.444 81.7095 111.929 82.1279C112.415 82.5462 112.657 83.0577 112.657 83.6621C112.657 84.0992 112.536 84.5209 112.293 84.9293C112.057 85.3296 111.61 85.8724 110.95 86.5565L108.966 88.6149V88.637H112.788V89.5105H107.613V88.8338L110.374 85.9126C110.9 85.3557 111.249 84.9333 111.423 84.6461C111.594 84.3583 111.678 84.051 111.678 83.723C111.678 83.3442 111.528 83.0222 111.227 82.7564C110.923 82.4907 110.555 82.3582 110.124 82.3582C109.663 82.3582 109.28 82.5054 108.972 82.8006C108.664 83.0958 108.51 83.4633 108.51 83.9038V83.9091H107.565V83.9038L107.565 83.9031Z" fill="black"/>
<path d="M131.213 84.9786H132.153C132.603 84.9786 132.97 84.8474 133.257 84.5857C133.543 84.3273 133.686 83.998 133.686 83.5977C133.686 83.1974 133.557 82.8807 133.3 82.6478C133.028 82.4075 132.65 82.2877 132.164 82.2877C131.715 82.2877 131.348 82.4075 131.066 82.6478C130.783 82.8881 130.62 83.2154 130.577 83.6305H129.637C129.691 82.9604 129.949 82.4276 130.408 82.0306C130.872 81.6337 131.472 81.4355 132.207 81.4355C132.943 81.4355 133.499 81.627 133.963 82.0092C134.434 82.3914 134.67 82.8774 134.67 83.4671C134.67 83.9585 134.525 84.3715 134.235 84.7068C133.945 85.0415 133.554 85.2531 133.061 85.3401V85.3622C133.655 85.3983 134.128 85.5877 134.48 85.9298C134.831 86.2759 135.007 86.725 135.007 87.2786C135.007 87.9487 134.739 88.5002 134.202 88.9333C133.673 89.3631 133.019 89.5779 132.24 89.5779C131.461 89.5779 130.773 89.3724 130.272 88.9608C129.779 88.5565 129.515 88.0236 129.479 87.3609H130.419C130.462 87.7726 130.644 88.0999 130.963 88.3436C131.289 88.5986 131.711 88.7258 132.229 88.7258C132.748 88.7258 133.175 88.5926 133.512 88.3275C133.845 88.0618 134.012 87.7231 134.012 87.3121C134.012 86.8495 133.849 86.4841 133.523 86.2143C133.2 85.9452 132.758 85.81 132.197 85.81H131.213V84.9799V84.9786Z" fill="black"/>
<path d="M155.252 87.8073H151.312V86.917C151.935 85.7556 153.082 83.9717 154.753 81.5659H156.198V86.9444H157.307V87.8073H156.198V89.4453H155.253V87.8073H155.252ZM152.279 86.9444H155.252V82.3852H155.236C153.863 84.3546 152.878 85.8674 152.279 86.923V86.9451V86.9444Z" fill="black"/>
<path d="M174.449 88.8716C173.946 88.4459 173.674 87.8976 173.634 87.2282H174.596C174.639 87.6466 174.822 87.9893 175.145 88.2551C175.467 88.5175 175.864 88.648 176.335 88.648C176.867 88.648 177.302 88.4807 177.64 88.146C177.973 87.8113 178.139 87.3782 178.139 86.8467C178.139 86.3152 177.973 85.8801 177.64 85.5414C177.302 85.1993 176.873 85.028 176.352 85.028C175.576 85.028 175.016 85.3232 174.672 85.9129H173.753L174.182 81.501H178.672V82.3745H174.986L174.747 84.9409H174.769C175.146 84.4349 175.731 84.1819 176.525 84.1819C177.318 84.1819 177.898 84.4295 178.384 84.9242C178.873 85.4229 179.118 86.0548 179.118 86.8192C179.118 87.5837 178.856 88.2551 178.335 88.7578C177.813 89.2598 177.143 89.5115 176.324 89.5115C175.573 89.5115 174.948 89.2986 174.449 88.8729L174.449 88.8716Z" fill="black"/>
<path d="M42.5242 108.955C42.0751 108.65 41.7286 108.213 41.486 107.645C41.2288 107.048 41.1002 106.325 41.1002 105.477C41.1002 104.149 41.3681 103.115 41.9045 102.376C42.4369 101.637 43.1838 101.268 44.144 101.268C44.811 101.268 45.3794 101.453 45.8505 101.825C46.3216 102.196 46.6208 102.691 46.7474 103.31H45.7525C45.6472 102.953 45.448 102.667 45.1548 102.452C44.8616 102.242 44.5205 102.136 44.1327 102.136C43.477 102.136 42.9693 102.418 42.6108 102.982C42.2523 103.546 42.0637 104.352 42.0457 105.401H42.0624C42.2396 105.015 42.5282 104.706 42.9266 104.473C43.3251 104.24 43.7675 104.123 44.2526 104.123C44.9989 104.123 45.6206 104.371 46.117 104.866C46.6101 105.361 46.856 105.981 46.856 106.728C46.856 107.474 46.5948 108.15 46.073 108.656C45.5473 109.165 44.883 109.42 44.078 109.42C43.491 109.42 42.9726 109.265 42.5235 108.956L42.5242 108.955ZM45.3401 108.027C45.6879 107.681 45.8618 107.259 45.8618 106.761C45.8618 106.262 45.6952 105.819 45.3621 105.488C45.0289 105.153 44.6031 104.986 44.0847 104.986C43.5663 104.986 43.1352 105.151 42.7907 105.483C42.4502 105.814 42.2796 106.231 42.2796 106.733C42.2796 107.235 42.4515 107.667 42.796 108.016C43.1439 108.369 43.5676 108.546 44.068 108.546C44.5685 108.546 44.9922 108.373 45.3401 108.027Z" fill="black"/>
<path d="M67.6727 102.299V102.277H63.4495V101.403H68.6402V102.315L65.1507 109.283H64.1232L67.6727 102.299Z" fill="black"/>
<path d="M86.0641 108.775C85.5317 108.353 85.2651 107.813 85.2651 107.153C85.2651 106.662 85.4191 106.23 85.7269 105.86C86.0347 105.488 86.4425 105.244 86.9496 105.128V105.106C86.5258 104.975 86.1907 104.751 85.9441 104.434C85.6976 104.121 85.5743 103.758 85.5743 103.343C85.5743 102.75 85.8155 102.256 86.2973 101.863C86.7757 101.47 87.3787 101.273 88.107 101.273C88.8353 101.273 89.4443 101.468 89.9228 101.857C90.3972 102.25 90.6351 102.748 90.6351 103.348C90.6351 103.76 90.5138 104.12 90.2713 104.429C90.0287 104.746 89.6936 104.971 89.2658 105.106V105.128C89.7729 105.248 90.1826 105.494 90.4945 105.865C90.8023 106.236 90.9563 106.666 90.9563 107.153C90.9563 107.812 90.6897 108.355 90.1573 108.781C89.6249 109.203 88.9413 109.414 88.1084 109.414C87.2754 109.414 86.5971 109.201 86.0647 108.775H86.0641ZM89.4397 108.142C89.7842 107.866 89.9561 107.512 89.9561 107.083C89.9561 106.653 89.7842 106.295 89.4397 106.018C89.0919 105.741 88.6481 105.603 88.1077 105.603C87.5673 105.603 87.1255 105.741 86.7817 106.018C86.4339 106.298 86.26 106.653 86.26 107.083C86.26 107.512 86.4339 107.865 86.7817 108.142C87.1295 108.419 87.5713 108.557 88.1077 108.557C88.6441 108.557 89.0912 108.419 89.4397 108.142ZM89.2331 104.374C89.523 104.131 89.6682 103.817 89.6682 103.435C89.6682 103.053 89.5236 102.732 89.2331 102.485C88.9433 102.242 88.5681 102.119 88.1077 102.119C87.6473 102.119 87.2728 102.243 86.9823 102.491C86.6924 102.734 86.5472 103.049 86.5472 103.435C86.5472 103.821 86.6917 104.131 86.9823 104.374C87.2721 104.618 87.6473 104.74 88.1077 104.74C88.5681 104.74 88.9393 104.619 89.2331 104.374Z" fill="white"/>
<path d="M152.418 102.447H152.396L150.32 103.948V102.911L152.406 101.404H153.363V109.283H152.418V102.447Z" fill="white"/>
<path d="M157.353 102.447H157.331L155.255 103.948V102.911L157.342 101.404H158.299V109.283H157.353V102.447Z" fill="white"/>
<path d="M173.37 102.513H173.348L171.272 104.014V102.977L173.358 101.47H174.315V109.349H173.37V102.513Z" fill="black"/>
<path d="M176.256 103.741C176.256 103.053 176.503 102.48 176.995 102.021C177.488 101.565 178.104 101.338 178.844 101.338C179.543 101.338 180.136 101.547 180.621 101.966C181.107 102.384 181.349 102.896 181.349 103.5C181.349 103.937 181.228 104.359 180.985 104.767C180.749 105.167 180.302 105.71 179.643 106.394L177.659 108.453V108.475H181.48V109.348H176.306V108.671L179.067 105.75C179.593 105.193 179.942 104.771 180.116 104.483C180.286 104.195 180.371 103.888 180.371 103.56C180.371 103.181 180.22 102.859 179.92 102.593C179.615 102.327 179.248 102.195 178.816 102.195C178.356 102.195 177.972 102.342 177.664 102.637C177.356 102.932 177.203 103.3 177.203 103.74V103.746H176.257V103.74L176.256 103.741Z" fill="black"/>
<path d="M40.8637 122.284H40.8417L38.7654 123.786V122.748L40.8523 121.241H41.8092V129.121H40.8637V122.284Z" fill="black"/>
<path d="M45.3967 124.654H46.3369C46.786 124.654 47.1538 124.523 47.4403 124.261C47.7268 124.003 47.8694 123.674 47.8694 123.273C47.8694 122.873 47.7408 122.557 47.4836 122.324C47.2118 122.083 46.8333 121.963 46.3475 121.963C45.8984 121.963 45.5319 122.083 45.2494 122.324C44.9669 122.564 44.8036 122.891 44.7603 123.306H43.8201C43.8748 122.636 44.132 122.103 44.5918 121.706C45.0555 121.309 45.6552 121.111 46.3908 121.111C47.1265 121.111 47.6829 121.303 48.1466 121.684C48.6177 122.067 48.8529 122.553 48.8529 123.142C48.8529 123.634 48.7083 124.047 48.4178 124.382C48.128 124.717 47.7368 124.928 47.2437 125.015V125.037C47.8381 125.073 48.3112 125.263 48.6624 125.605C49.0142 125.951 49.1894 126.4 49.1894 126.954C49.1894 127.624 48.9216 128.175 48.3852 128.608C47.8561 129.038 47.2018 129.253 46.4228 129.253C45.6439 129.253 44.9549 129.048 44.4552 128.636C43.9621 128.232 43.6975 127.699 43.6616 127.036H44.6018C44.6451 127.448 44.8263 127.775 45.1455 128.019C45.4713 128.274 45.8938 128.401 46.4122 128.401C46.9306 128.401 47.3577 128.268 47.6948 128.003C48.028 127.737 48.1946 127.398 48.1946 126.987C48.1946 126.525 48.0313 126.159 47.7055 125.889C47.383 125.62 46.9406 125.485 46.3795 125.485H45.3953V124.655L45.3967 124.654Z" fill="black"/>
<path d="M62.7346 122.284H62.7126L60.6363 123.786V122.748L62.7232 121.241H63.6801V129.121H62.7346V122.284Z" fill="black"/>
<path d="M69.3985 127.483H65.4578V126.592C66.0808 125.431 67.2283 123.647 68.8987 121.241H70.3447V126.62H71.4535V127.483H70.3447V129.121H69.3992V127.483H69.3985ZM66.4253 126.62H69.3985V122.061H69.3825C68.0092 124.03 67.0237 125.543 66.4253 126.598V126.62V126.62Z" fill="black"/>
<path d="M84.9473 122.219H84.9253L82.8491 123.72V122.683L84.936 121.176H85.8928V129.055H84.9473V122.219Z" fill="black"/>
<path d="M88.7034 128.548C88.1997 128.122 87.9278 127.574 87.8878 126.904H88.85C88.8933 127.323 89.0765 127.665 89.3991 127.931C89.7216 128.194 90.1187 128.324 90.5891 128.324C91.1215 128.324 91.5566 128.157 91.8938 127.822C92.227 127.487 92.3935 127.054 92.3935 126.522C92.3935 125.991 92.227 125.556 91.8938 125.217C91.5566 124.875 91.1275 124.703 90.6058 124.703C89.8302 124.703 89.2705 124.998 88.926 125.588H88.0071L88.4362 121.176H92.9259V122.049H89.2405L89.0013 124.616H89.0232C89.4004 124.11 89.9854 123.857 90.779 123.857C91.5726 123.857 92.1523 124.104 92.6381 124.599C93.1272 125.098 93.3717 125.73 93.3717 126.494C93.3717 127.258 93.1112 127.93 92.5888 128.433C92.067 128.935 91.3967 129.186 90.5778 129.186C89.8275 129.186 89.2025 128.973 88.7027 128.548H88.7034Z" fill="black"/>
<path d="M106.951 122.284H106.929L104.853 123.786V122.748L106.939 121.241H107.896V129.121H106.951V122.284Z" fill="black"/>
<path d="M111.169 128.793C110.72 128.487 110.374 128.051 110.131 127.482C109.874 126.885 109.745 126.163 109.745 125.314C109.745 123.986 110.013 122.952 110.55 122.213C111.082 121.474 111.829 121.104 112.789 121.104C113.456 121.104 114.025 121.29 114.496 121.661C114.967 122.033 115.266 122.528 115.393 123.147H114.398C114.292 122.79 114.093 122.504 113.8 122.289C113.507 122.078 113.166 121.973 112.778 121.973C112.122 121.973 111.614 122.254 111.256 122.819C110.898 123.383 110.709 124.189 110.691 125.238H110.708C110.885 124.852 111.173 124.542 111.572 124.31C111.97 124.077 112.413 123.96 112.898 123.96C113.644 123.96 114.266 124.208 114.762 124.702C115.255 125.198 115.501 125.818 115.501 126.565C115.501 127.311 115.24 127.986 114.718 128.492C114.193 129.002 113.528 129.257 112.723 129.257C112.136 129.257 111.618 129.102 111.169 128.793H111.169ZM113.985 127.865C114.332 127.519 114.506 127.096 114.506 126.597C114.506 126.099 114.34 125.656 114.007 125.325C113.673 124.99 113.248 124.823 112.729 124.823C112.211 124.823 111.78 124.988 111.435 125.32C111.095 125.651 110.924 126.068 110.924 126.57C110.924 127.072 111.096 127.504 111.441 127.853C111.788 128.207 112.212 128.383 112.713 128.383C113.213 128.383 113.637 128.21 113.985 127.864V127.865Z" fill="black"/>
<path d="M129.341 122.284H129.319L127.243 123.786V122.748L129.33 121.241H130.286V129.121H129.341V122.284Z" fill="black"/>
<path d="M136.277 122.137V122.115H132.053V121.241H137.244V122.153L133.755 129.121H132.727L136.277 122.137Z" fill="black"/>
<path d="M151.119 122.284H151.097L149.021 123.786V122.748L151.108 121.241H152.065V129.121H151.119V122.284Z" fill="black"/>
<path d="M154.707 128.613C154.174 128.191 153.908 127.651 153.908 126.991C153.908 126.5 154.062 126.068 154.369 125.697C154.677 125.326 155.085 125.082 155.592 124.966V124.944C155.168 124.813 154.833 124.589 154.587 124.272C154.34 123.959 154.217 123.595 154.217 123.181C154.217 122.588 154.458 122.094 154.94 121.701C155.418 121.308 156.021 121.111 156.75 121.111C157.478 121.111 158.087 121.306 158.565 121.695C159.04 122.088 159.278 122.585 159.278 123.186C159.278 123.598 159.156 123.958 158.913 124.267C158.671 124.584 158.335 124.809 157.908 124.944V124.966C158.415 125.086 158.824 125.332 159.136 125.703C159.444 126.074 159.597 126.503 159.597 126.991C159.597 127.65 159.331 128.193 158.799 128.619C158.266 129.041 157.582 129.252 156.75 129.252C155.917 129.252 155.238 129.039 154.706 128.613H154.707ZM158.082 127.979C158.426 127.703 158.598 127.35 158.598 126.92C158.598 126.49 158.426 126.132 158.082 125.855C157.734 125.578 157.29 125.44 156.75 125.44C156.209 125.44 155.767 125.578 155.424 125.855C155.076 126.135 154.902 126.49 154.902 126.92C154.902 127.35 155.076 127.702 155.424 127.979C155.771 128.256 156.214 128.394 156.75 128.394C157.285 128.394 157.733 128.256 158.082 127.979ZM157.875 124.212C158.165 123.968 158.31 123.655 158.31 123.273C158.31 122.891 158.165 122.57 157.875 122.323C157.585 122.079 157.21 121.957 156.75 121.957C156.289 121.957 155.915 122.081 155.624 122.328C155.334 122.572 155.189 122.887 155.189 123.273C155.189 123.659 155.334 123.968 155.624 124.212C155.915 124.456 156.289 124.578 156.75 124.578C157.21 124.578 157.581 124.456 157.875 124.212Z" fill="black"/>
<path d="M173.191 122.287H173.169L171.092 123.788V122.75L173.179 121.244H174.136V129.123H173.191V122.287Z" fill="black"/>
<path d="M176.909 128.697C176.434 128.326 176.137 127.831 176.017 127.212H177.012C177.117 127.569 177.316 127.857 177.61 128.075C177.904 128.29 178.244 128.397 178.632 128.397C179.284 128.397 179.791 128.111 180.154 127.539C180.512 126.972 180.699 126.163 180.713 125.115H180.697C180.53 125.504 180.249 125.818 179.855 126.054C179.456 126.287 179.006 126.403 178.507 126.403C177.76 126.403 177.139 126.156 176.642 125.661C176.149 125.166 175.903 124.545 175.903 123.799C175.903 123.052 176.166 122.377 176.691 121.871C177.213 121.361 177.876 121.106 178.681 121.106C179.271 121.106 179.792 121.259 180.241 121.565C180.69 121.874 181.035 122.311 181.274 122.876C181.531 123.473 181.66 124.197 181.66 125.049C181.66 126.378 181.393 127.41 180.861 128.145C180.328 128.884 179.581 129.254 178.621 129.254C177.954 129.254 177.384 129.068 176.909 128.697V128.697ZM179.968 125.044C180.313 124.713 180.485 124.296 180.485 123.794C180.485 123.292 180.313 122.862 179.968 122.516C179.624 122.17 179.195 121.992 178.691 121.992C178.187 121.992 177.762 122.165 177.414 122.511C177.066 122.853 176.892 123.272 176.892 123.767C176.892 124.261 177.061 124.704 177.398 125.039C177.735 125.374 178.161 125.541 178.675 125.541C179.19 125.541 179.625 125.376 179.969 125.044H179.968Z" fill="black"/>
<path d="M37.9911 141.026C37.9911 140.338 38.2376 139.765 38.73 139.306C39.2231 138.851 39.8388 138.623 40.5778 138.623C41.2774 138.623 41.8698 138.833 42.3549 139.251C42.8406 139.669 43.0832 140.181 43.0832 140.785C43.0832 141.222 42.9619 141.644 42.7187 142.052C42.4828 142.452 42.0357 142.995 41.376 143.679L39.3924 145.737V145.759H43.2138V146.633H38.0397V145.956L40.801 143.035C41.3267 142.478 41.6759 142.056 41.8498 141.768C42.0204 141.481 42.105 141.173 42.105 140.845C42.105 140.467 41.9544 140.145 41.6539 139.879C41.3494 139.613 40.9816 139.48 40.5505 139.48C40.09 139.48 39.7062 139.627 39.3984 139.922C39.0905 140.217 38.9366 140.585 38.9366 141.025V141.031H37.9911V141.025V141.026Z" fill="black"/>
<path d="M44.9542 145.662C44.4472 144.938 44.1933 143.948 44.1933 142.691C44.1933 141.435 44.4472 140.46 44.9542 139.732C45.4727 138.993 46.183 138.624 47.0852 138.624C47.9874 138.624 48.6957 138.991 49.2101 139.727C49.7138 140.451 49.9657 141.438 49.9657 142.686C49.9657 143.934 49.7138 144.932 49.2101 145.657C48.699 146.396 47.9907 146.765 47.0852 146.765C46.1796 146.765 45.4653 146.398 44.9542 145.662ZM48.4925 145.034C48.8183 144.47 48.9815 143.689 48.9815 142.691C48.9815 141.693 48.817 140.932 48.4871 140.36C48.15 139.778 47.6829 139.486 47.0845 139.486C46.4861 139.486 46.017 139.78 45.6765 140.365C45.3434 140.937 45.1768 141.71 45.1768 142.686C45.1768 143.662 45.3414 144.466 45.6712 145.034C46.0084 145.617 46.4795 145.908 47.0845 145.908C47.6895 145.908 48.1586 145.617 48.4925 145.034Z" fill="black"/>
<path d="M61.3973 141.157C61.3973 140.469 61.6438 139.896 62.1362 139.437C62.6293 138.982 63.245 138.754 63.9846 138.754C64.6843 138.754 65.2766 138.964 65.7617 139.382C66.2475 139.801 66.49 140.312 66.49 140.917C66.49 141.354 66.3688 141.775 66.1255 142.184C65.8903 142.584 65.4426 143.126 64.7829 143.811L62.7986 145.869V145.891H66.62V146.765H61.4452V146.088L64.2065 143.166C64.7322 142.609 65.0814 142.187 65.2553 141.899C65.4259 141.611 65.5105 141.304 65.5105 140.976C65.5105 140.597 65.3599 140.275 65.0594 140.009C64.7549 139.744 64.3871 139.611 63.956 139.611C63.4955 139.611 63.1117 139.758 62.8039 140.054C62.496 140.349 62.3421 140.716 62.3421 141.157V141.162H61.3966V141.157L61.3973 141.157Z" fill="black"/>
<path d="M69.7464 139.929H69.7244L67.6481 141.431V140.393L69.7351 138.886H70.6919V146.766H69.7464V139.929Z" fill="black"/>
<path d="M82.3493 141.157C82.3493 140.469 82.5958 139.896 83.0883 139.437C83.5813 138.982 84.197 138.754 84.936 138.754C85.6356 138.754 86.228 138.964 86.7131 139.382C87.1988 139.801 87.4414 140.312 87.4414 140.917C87.4414 141.354 87.3201 141.775 87.0769 142.184C86.8417 142.584 86.3939 143.126 85.7342 143.811L83.7506 145.869V145.891H87.572V146.765H82.3973V146.088L85.1585 143.166C85.6843 142.609 86.0334 142.187 86.2073 141.899C86.3779 141.611 86.4625 141.304 86.4625 140.976C86.4625 140.597 86.312 140.275 86.0114 140.009C85.7069 139.744 85.3391 139.611 84.908 139.611C84.4476 139.611 84.0638 139.758 83.7559 140.054C83.4481 140.349 83.2942 140.716 83.2942 141.157V141.162H82.3486V141.157L82.3493 141.157Z" fill="black"/>
<path d="M88.6488 141.157C88.6488 140.469 88.8953 139.896 89.3878 139.437C89.8808 138.982 90.4965 138.754 91.2355 138.754C91.9351 138.754 92.5275 138.964 93.0126 139.382C93.4983 139.801 93.7409 140.312 93.7409 140.917C93.7409 141.354 93.6196 141.775 93.3764 142.184C93.1412 142.584 92.6934 143.126 92.0337 143.811L90.0501 145.869V145.891H93.8715V146.765H88.6968V146.088L91.458 143.166C91.9838 142.609 92.3329 142.187 92.5068 141.899C92.6774 141.611 92.762 141.304 92.762 140.976C92.762 140.597 92.6115 140.275 92.3109 140.009C92.0064 139.744 91.6386 139.611 91.2075 139.611C90.7471 139.611 90.3633 139.758 90.0554 140.054C89.7476 140.349 89.5937 140.716 89.5937 141.157V141.162H88.6481V141.157L88.6488 141.157Z" fill="black"/>
<path d="M104.307 141.026C104.307 140.338 104.553 139.765 105.046 139.306C105.539 138.851 106.155 138.623 106.894 138.623C107.594 138.623 108.186 138.833 108.671 139.251C109.157 139.669 109.4 140.181 109.4 140.785C109.4 141.222 109.278 141.644 109.035 142.052C108.799 142.452 108.352 142.995 107.692 143.679L105.709 145.737V145.759H109.53V146.633H104.355V145.956L107.117 143.035C107.642 142.478 107.992 142.056 108.166 141.768C108.336 141.481 108.421 141.173 108.421 140.845C108.421 140.467 108.27 140.145 107.97 139.879C107.665 139.613 107.297 139.48 106.866 139.48C106.406 139.48 106.022 139.627 105.714 139.922C105.406 140.217 105.252 140.585 105.252 141.025V141.031H104.307V141.025V141.026Z" fill="black"/>
<path d="M112.253 142.168H113.194C113.643 142.168 114.011 142.036 114.297 141.775C114.584 141.516 114.726 141.187 114.726 140.787C114.726 140.386 114.598 140.07 114.34 139.837C114.069 139.596 113.69 139.477 113.204 139.477C112.755 139.477 112.389 139.596 112.106 139.837C111.824 140.077 111.66 140.404 111.617 140.819H110.677C110.732 140.149 110.989 139.617 111.449 139.22C111.912 138.823 112.512 138.625 113.248 138.625C113.983 138.625 114.54 138.816 115.003 139.198C115.474 139.58 115.71 140.066 115.71 140.656C115.71 141.147 115.565 141.56 115.275 141.896C114.985 142.23 114.594 142.442 114.1 142.529V142.551C114.695 142.587 115.168 142.777 115.519 143.119C115.871 143.465 116.046 143.914 116.046 144.468C116.046 145.138 115.778 145.689 115.242 146.122C114.713 146.552 114.059 146.767 113.28 146.767C112.501 146.767 111.812 146.561 111.312 146.15C110.819 145.745 110.554 145.213 110.518 144.55H111.458C111.502 144.962 111.683 145.289 112.002 145.533C112.328 145.788 112.751 145.915 113.269 145.915C113.787 145.915 114.214 145.782 114.552 145.517C114.885 145.251 115.051 144.912 115.051 144.501C115.051 144.039 114.888 143.673 114.562 143.403C114.24 143.134 113.798 142.999 113.236 142.999H112.252V142.169L112.253 142.168Z" fill="black"/>
<path d="M126.313 141.157C126.313 140.469 126.56 139.896 127.052 139.437C127.545 138.982 128.161 138.754 128.9 138.754C129.599 138.754 130.192 138.964 130.677 139.382C131.163 139.801 131.405 140.312 131.405 140.917C131.405 141.354 131.284 141.775 131.041 142.184C130.805 142.584 130.358 143.126 129.698 143.811L127.714 145.869V145.891H131.536V146.765H126.361V146.088L129.122 143.166C129.648 142.609 129.997 142.187 130.171 141.899C130.342 141.611 130.426 141.304 130.426 140.976C130.426 140.597 130.276 140.275 129.975 140.009C129.671 139.744 129.303 139.611 128.872 139.611C128.411 139.611 128.027 139.758 127.72 140.054C127.412 140.349 127.258 140.716 127.258 141.157V141.162H126.312V141.157L126.313 141.157Z" fill="black"/>
<path d="M136.119 145.127H132.178V144.237C132.801 143.075 133.948 141.292 135.619 138.886H137.065V144.264H138.174V145.127H137.065V146.765H136.119V145.127H136.119ZM133.146 144.264H136.119V139.705H136.102C134.729 141.674 133.743 143.187 133.145 144.243V144.265L133.146 144.264Z" fill="black"/>
<path d="M148.391 141.026C148.391 140.338 148.637 139.765 149.129 139.306C149.623 138.851 150.238 138.623 150.978 138.623C151.678 138.623 152.27 138.833 152.755 139.251C153.241 139.669 153.483 140.181 153.483 140.785C153.483 141.222 153.362 141.644 153.119 142.052C152.883 142.452 152.436 142.995 151.776 143.679L149.792 145.737V145.759H153.614V146.633H148.439V145.956L151.2 143.035C151.726 142.478 152.075 142.056 152.249 141.768C152.42 141.481 152.504 141.173 152.504 140.845C152.504 140.467 152.354 140.145 152.053 139.879C151.749 139.613 151.381 139.48 150.95 139.48C150.489 139.48 150.106 139.627 149.798 139.922C149.49 140.217 149.336 140.585 149.336 141.025V141.031H148.391V141.025V141.026Z" fill="black"/>
<path d="M155.56 146.126C155.056 145.7 154.784 145.152 154.744 144.483H155.706C155.749 144.901 155.933 145.244 156.255 145.509C156.578 145.771 156.974 145.902 157.445 145.902C157.978 145.902 158.413 145.735 158.75 145.4C159.083 145.066 159.25 144.633 159.25 144.101C159.25 143.57 159.083 143.134 158.75 142.796C158.413 142.454 157.984 142.282 157.462 142.282C156.686 142.282 156.127 142.578 155.782 143.167H154.863L155.293 138.755H159.783V139.629H156.097L155.858 142.195H155.88C156.257 141.689 156.842 141.436 157.636 141.436C158.429 141.436 159.009 141.684 159.495 142.179C159.984 142.677 160.229 143.309 160.229 144.074C160.229 144.838 159.968 145.509 159.446 146.012C158.924 146.514 158.254 146.766 157.435 146.766C156.684 146.766 156.059 146.553 155.56 146.127V146.126Z" fill="black"/>
<path d="M170.394 141.021C170.394 140.333 170.641 139.76 171.133 139.301C171.626 138.846 172.242 138.618 172.981 138.618C173.681 138.618 174.273 138.828 174.758 139.246C175.244 139.664 175.487 140.176 175.487 140.78C175.487 141.217 175.365 141.639 175.122 142.047C174.887 142.447 174.439 142.99 173.78 143.674L171.795 145.732V145.754H175.617V146.628H170.442V145.951L173.203 143.03C173.729 142.473 174.078 142.051 174.252 141.764C174.423 141.476 174.507 141.169 174.507 140.841C174.507 140.462 174.357 140.14 174.056 139.874C173.752 139.608 173.384 139.476 172.953 139.476C172.492 139.476 172.108 139.623 171.801 139.918C171.493 140.213 171.339 140.581 171.339 141.021V141.027H170.393V141.021H170.394Z" fill="black"/>
<path d="M178.025 146.301C177.576 145.995 177.23 145.559 176.987 144.991C176.73 144.393 176.602 143.671 176.602 142.823C176.602 141.494 176.869 140.461 177.406 139.722C177.938 138.983 178.685 138.613 179.645 138.613C180.312 138.613 180.881 138.799 181.352 139.17C181.823 139.542 182.122 140.036 182.249 140.656H181.254C181.149 140.299 180.949 140.013 180.656 139.798C180.363 139.587 180.022 139.481 179.634 139.481C178.978 139.481 178.471 139.763 178.112 140.328C177.754 140.892 177.565 141.698 177.547 142.747H177.564C177.741 142.361 178.029 142.051 178.428 141.818C178.826 141.585 179.269 141.469 179.754 141.469C180.5 141.469 181.122 141.717 181.618 142.211C182.111 142.707 182.357 143.327 182.357 144.073C182.357 144.82 182.096 145.495 181.574 146.001C181.049 146.511 180.384 146.766 179.579 146.766C178.992 146.766 178.474 146.611 178.025 146.302L178.025 146.301ZM180.841 145.373C181.189 145.027 181.363 144.605 181.363 144.106C181.363 143.608 181.197 143.165 180.863 142.834C180.53 142.499 180.104 142.332 179.586 142.332C179.068 142.332 178.636 142.497 178.293 142.828C177.952 143.16 177.782 143.577 177.782 144.079C177.782 144.581 177.953 145.013 178.298 145.362C178.646 145.715 179.07 145.892 179.57 145.892C180.07 145.892 180.494 145.719 180.842 145.373H180.841Z" fill="black"/>
<path d="M38.3203 160.925C38.3203 160.236 38.5668 159.663 39.0592 159.204C39.5523 158.749 40.168 158.521 40.9076 158.521C41.6073 158.521 42.1996 158.731 42.6847 159.149C43.1705 159.568 43.413 160.079 43.413 160.684C43.413 161.121 43.2917 161.542 43.0485 161.95C42.8133 162.35 42.3655 162.893 41.7059 163.577L39.7222 165.636V165.658H43.5436V166.531H38.3689V165.854L41.1302 162.933C41.6559 162.376 42.0051 161.953 42.179 161.666C42.3495 161.378 42.4342 161.071 42.4342 160.743C42.4342 160.364 42.2836 160.042 41.9831 159.776C41.6785 159.51 41.3107 159.378 40.8796 159.378C40.4192 159.378 40.0354 159.525 39.7275 159.82C39.4197 160.115 39.2658 160.483 39.2658 160.923V160.929H38.3203V160.923V160.925Z" fill="black"/>
<path d="M48.669 159.548V159.526H44.4458V158.653H49.6365V159.565L46.1469 166.532H45.1195L48.669 159.548Z" fill="black"/>
<path d="M60.0979 160.859C60.0979 160.171 60.3444 159.598 60.8369 159.138C61.3299 158.683 61.9456 158.456 62.6853 158.456C63.3849 158.456 63.9773 158.665 64.4624 159.083C64.9481 159.502 65.1907 160.013 65.1907 160.618C65.1907 161.055 65.0694 161.477 64.8262 161.885C64.5903 162.285 64.1432 162.828 63.4835 163.512L61.4999 165.57V165.593H65.3213V166.466H60.1465V165.789L62.9078 162.868C63.4335 162.311 63.7827 161.889 63.9566 161.602C64.1272 161.314 64.2118 161.007 64.2118 160.679C64.2118 160.3 64.0612 159.978 63.7607 159.712C63.4562 159.446 63.0884 159.314 62.6573 159.314C62.1968 159.314 61.813 159.461 61.5052 159.756C61.1973 160.051 61.0434 160.419 61.0434 160.859V160.865H60.0979V160.859V160.859Z" fill="black"/>
<path d="M67.099 165.959C66.5666 165.536 66.3001 164.996 66.3001 164.337C66.3001 163.845 66.454 163.414 66.7619 163.043C67.0697 162.671 67.4775 162.428 67.9846 162.311V162.289C67.5608 162.158 67.2256 161.934 66.9791 161.618C66.7326 161.304 66.6093 160.941 66.6093 160.526C66.6093 159.933 66.8505 159.439 67.3323 159.046C67.8107 158.653 68.4137 158.456 69.142 158.456C69.8703 158.456 70.4793 158.651 70.9571 159.04C71.4315 159.433 71.6694 159.931 71.6694 160.531C71.6694 160.943 71.5481 161.303 71.3049 161.612C71.0624 161.929 70.7272 162.154 70.2994 162.289V162.311C70.8065 162.431 71.2163 162.677 71.5281 163.048C71.836 163.42 71.9899 163.849 71.9899 164.337C71.9899 164.995 71.7234 165.538 71.191 165.964C70.6586 166.386 69.9749 166.597 69.142 166.597C68.3091 166.597 67.6308 166.384 67.0984 165.959H67.099ZM70.4747 165.325C70.8192 165.048 70.9911 164.695 70.9911 164.265C70.9911 163.835 70.8192 163.477 70.4747 163.2C70.1268 162.924 69.6831 162.785 69.1427 162.785C68.6023 162.785 68.1605 162.924 67.8167 163.2C67.4689 163.48 67.2949 163.835 67.2949 164.265C67.2949 164.695 67.4689 165.047 67.8167 165.325C68.1645 165.601 68.6063 165.74 69.1427 165.74C69.6791 165.74 70.1262 165.601 70.4747 165.325ZM70.2681 161.557C70.558 161.314 70.7032 161 70.7032 160.618C70.7032 160.236 70.558 159.915 70.2681 159.668C69.9782 159.425 69.6031 159.302 69.1427 159.302C68.6822 159.302 68.3071 159.426 68.0172 159.674C67.7274 159.917 67.5821 160.233 67.5821 160.618C67.5821 161.004 67.7274 161.314 68.0172 161.557C68.3071 161.801 68.6822 161.923 69.1427 161.923C69.6031 161.923 69.9742 161.802 70.2681 161.557Z" fill="black"/>
<path d="M82.17 160.862C82.17 160.173 82.4166 159.6 82.909 159.141C83.4021 158.686 84.0178 158.458 84.7574 158.458C85.457 158.458 86.0494 158.668 86.5345 159.086C87.0203 159.505 87.2628 160.016 87.2628 160.621C87.2628 161.058 87.1415 161.479 86.8983 161.888C86.6624 162.288 86.2153 162.831 85.5557 163.515L83.572 165.573V165.595H87.3934V166.469H82.2187V165.792L84.98 162.871C85.5057 162.314 85.8548 161.892 86.0288 161.605C86.1993 161.317 86.284 161.01 86.284 160.682C86.284 160.303 86.1334 159.981 85.8329 159.715C85.5283 159.449 85.1605 159.317 84.7294 159.317C84.269 159.317 83.8852 159.464 83.5773 159.759C83.2695 160.054 83.1156 160.422 83.1156 160.862V160.868H82.17V160.862V160.862Z" fill="black"/>
<path d="M89.3011 166.043C88.8267 165.672 88.5295 165.177 88.4095 164.558H89.4044C89.5096 164.915 89.7089 165.203 90.0021 165.421C90.2952 165.636 90.6364 165.743 91.0242 165.743C91.6766 165.743 92.1836 165.457 92.5461 164.885C92.9046 164.318 93.0912 163.509 93.1058 162.461H93.0898C92.9233 162.85 92.6421 163.164 92.2476 163.4C91.8491 163.633 91.4 163.749 90.8996 163.749C90.1533 163.749 89.5316 163.502 89.0352 163.007C88.5421 162.512 88.2963 161.891 88.2963 161.145C88.2963 160.398 88.5588 159.723 89.0845 159.218C89.6063 158.708 90.2693 158.453 91.0742 158.453C91.6646 158.453 92.185 158.606 92.6341 158.912C93.0832 159.221 93.4277 159.658 93.6669 160.222C93.9241 160.819 94.0527 161.544 94.0527 162.396C94.0527 163.725 93.7861 164.757 93.2537 165.492C92.7214 166.231 91.9744 166.6 91.0142 166.6C90.3472 166.6 89.7768 166.415 89.3018 166.043H89.3011ZM92.3615 162.39C92.706 162.059 92.8779 161.642 92.8779 161.14C92.8779 160.638 92.706 160.208 92.3615 159.862C92.0137 159.513 91.5879 159.338 91.0842 159.338C90.5804 159.338 90.1547 159.511 89.8068 159.857C89.459 160.199 89.2851 160.618 89.2851 161.113C89.2851 161.607 89.4537 162.05 89.7908 162.385C90.128 162.72 90.5538 162.887 91.0682 162.887C91.5826 162.887 92.0177 162.722 92.3615 162.39Z" fill="black"/>
<path d="M105.736 162H106.676C107.125 162 107.493 161.869 107.78 161.607C108.066 161.349 108.209 161.02 108.209 160.619C108.209 160.218 108.08 159.902 107.823 159.669C107.551 159.428 107.173 159.309 106.687 159.309C106.238 159.309 105.871 159.428 105.589 159.669C105.306 159.909 105.143 160.236 105.1 160.651H104.16C104.214 159.981 104.471 159.449 104.931 159.052C105.395 158.655 105.995 158.457 106.73 158.457C107.466 158.457 108.022 158.648 108.486 159.03C108.957 159.412 109.192 159.898 109.192 160.488C109.192 160.979 109.047 161.392 108.757 161.728C108.467 162.063 108.076 162.274 107.583 162.361V162.383C108.178 162.419 108.651 162.609 109.002 162.951C109.354 163.297 109.529 163.746 109.529 164.3C109.529 164.97 109.261 165.521 108.725 165.954C108.196 166.384 107.541 166.599 106.762 166.599C105.983 166.599 105.295 166.393 104.795 165.982C104.301 165.577 104.037 165.045 104.001 164.382H104.941C104.984 164.794 105.166 165.121 105.485 165.365C105.811 165.62 106.233 165.747 106.752 165.747C107.27 165.747 107.697 165.614 108.034 165.348C108.367 165.082 108.534 164.743 108.534 164.332C108.534 163.87 108.371 163.504 108.045 163.235C107.722 162.966 107.281 162.83 106.719 162.83H105.735V162H105.736Z" fill="black"/>
<path d="M111.341 165.494C110.834 164.77 110.58 163.78 110.58 162.523C110.58 161.267 110.834 160.292 111.341 159.564C111.859 158.825 112.569 158.456 113.472 158.456C114.374 158.456 115.082 158.823 115.596 159.559C116.1 160.283 116.352 161.27 116.352 162.518C116.352 163.766 116.1 164.764 115.596 165.489C115.085 166.228 114.377 166.597 113.472 166.597C112.566 166.597 111.852 166.23 111.341 165.494ZM114.879 164.866C115.205 164.302 115.368 163.521 115.368 162.523C115.368 161.525 115.203 160.764 114.873 160.192C114.536 159.61 114.069 159.318 113.471 159.318C112.872 159.318 112.403 159.612 112.063 160.197C111.73 160.769 111.563 161.542 111.563 162.518C111.563 163.494 111.728 164.298 112.058 164.866C112.395 165.449 112.866 165.74 113.471 165.74C114.076 165.74 114.545 165.449 114.879 164.866Z" fill="black"/>
<rect x="37.6" y="38.6001" width="95" height="10" rx="5" fill="#FDEBF0"/>
</g>
<defs>
<filter id="filter0_d_1_1005" x="-2.28882e-05" y="9.91821e-05" width="288.2" height="247.2" filterUnits="userSpaceOnUse" color-interpolation-filters="sRGB">
<feFlood flood-opacity="0" result="BackgroundImageFix"/>
<feColorMatrix in="SourceAlpha" type="matrix" values="0 0 0 0 0 0 0 0 0 0 0 0 0 0 0 0 0 0 127 0" result="hardAlpha"/>
<feOffset dx="29" dy="21"/>
<feGaussianBlur stdDeviation="19.3"/>
<feComposite in2="hardAlpha" operator="out"/>
<feColorMatrix type="matrix" values="0 0 0 0 0.75 0 0 0 0 0.128125 0 0 0 0 0.289742 0 0 0 0.28 0"/>
<feBlend mode="normal" in2="BackgroundImageFix" result="effect1_dropShadow_1_1005"/>
<feBlend mode="normal" in="SourceGraphic" in2="effect1_dropShadow_1_1005" result="shape"/>
</filter>
<clipPath id="clip0_1_1005">
<rect width="146" height="131" fill="white" transform="translate(37.6 35.6001)"/>
</clipPath>
</defs>
</svg>
