<svg width="76" height="76" viewBox="0 0 76 76" fill="none" xmlns="http://www.w3.org/2000/svg">
<circle cx="38" cy="38" r="35.5" fill="white" stroke="#ED3C6A" stroke-width="5"/>
<path d="M29.1138 48.3508C27.3015 48.3508 25.7426 47.9123 24.4369 47.0354C23.1313 46.139 22.1277 44.9015 21.4262 43.3231C20.7246 41.7251 20.3738 39.8738 20.3738 37.7692C20.3738 35.6646 20.7246 33.8231 21.4262 32.2446C22.1277 30.6467 23.1313 29.4092 24.4369 28.5323C25.7426 27.6359 27.3015 27.1877 29.1138 27.1877C30.9262 27.1877 32.4754 27.6359 33.7615 28.5323C35.0672 29.4092 36.061 30.6467 36.7431 32.2446C37.4446 33.8231 37.7954 35.6646 37.7954 37.7692C37.7954 39.8738 37.4446 41.7251 36.7431 43.3231C36.061 44.9015 35.0672 46.139 33.7615 47.0354C32.4754 47.9123 30.9262 48.3508 29.1138 48.3508ZM29.1138 45.7492C30.2051 45.7492 31.1795 45.4277 32.0369 44.7846C32.9138 44.1415 33.5959 43.2256 34.0831 42.0369C34.5703 40.8482 34.8138 39.4256 34.8138 37.7692C34.8138 36.1128 34.5703 34.6903 34.0831 33.5015C33.5959 32.3128 32.9138 31.4067 32.0369 30.7831C31.1795 30.14 30.2051 29.8185 29.1138 29.8185C28.0031 29.8185 27.0092 30.14 26.1323 30.7831C25.2554 31.4067 24.5733 32.3128 24.0862 33.5015C23.599 34.6903 23.3554 36.1128 23.3554 37.7692C23.3554 39.4256 23.599 40.8482 24.0862 42.0369C24.5733 43.2256 25.2554 44.1415 26.1323 44.7846C27.0092 45.4277 28.0031 45.7492 29.1138 45.7492ZM47.8049 48.3508C46.4992 48.3508 45.3008 48.1169 44.2095 47.6492C43.1377 47.1621 42.2803 46.441 41.6372 45.4862C41.0136 44.5118 40.6823 43.2938 40.6433 41.8323H43.5664C43.5859 42.5728 43.7613 43.2451 44.0926 43.8492C44.4238 44.4533 44.9013 44.9405 45.5249 45.3108C46.1679 45.6615 46.9279 45.8369 47.8049 45.8369C48.6818 45.8369 49.4126 45.6713 49.9972 45.34C50.6013 45.0087 51.0495 44.5605 51.3418 43.9954C51.6536 43.4303 51.8095 42.7969 51.8095 42.0954C51.8095 41.2185 51.5951 40.5072 51.1664 39.9615C50.7572 39.4159 50.192 39.0067 49.471 38.7338C48.7695 38.461 47.9803 38.3246 47.1033 38.3246H45.5833V35.8692H47.1033C48.331 35.8692 49.3054 35.5867 50.0264 35.0215C50.7669 34.4564 51.1372 33.6574 51.1372 32.6246C51.1372 31.7672 50.8546 31.0656 50.2895 30.52C49.7244 29.9744 48.8961 29.7015 47.8049 29.7015C46.7136 29.7015 45.8464 30.0133 45.2033 30.6369C44.5797 31.2605 44.229 32.0497 44.151 33.0046H41.2572C41.3156 31.8549 41.6177 30.8415 42.1633 29.9646C42.7285 29.0682 43.4885 28.3862 44.4433 27.9185C45.4177 27.4313 46.5382 27.1877 47.8049 27.1877C49.169 27.1877 50.309 27.4313 51.2249 27.9185C52.1603 28.3862 52.8618 29.0195 53.3295 29.8185C53.8167 30.6174 54.0603 31.4944 54.0603 32.4492C54.0603 33.1703 53.9238 33.8426 53.651 34.4662C53.3782 35.0703 52.9885 35.5964 52.4818 36.0446C51.9751 36.4928 51.3613 36.8144 50.6403 37.0092C51.4197 37.1651 52.1213 37.4672 52.7449 37.9154C53.3685 38.3636 53.8556 38.9482 54.2064 39.6692C54.5572 40.3708 54.7326 41.1892 54.7326 42.1246C54.7326 43.2354 54.4695 44.2682 53.9433 45.2231C53.4172 46.1585 52.6377 46.9185 51.6049 47.5031C50.5915 48.0682 49.3249 48.3508 47.8049 48.3508Z" fill="black"/>
</svg>
