<svg width="76" height="76" viewBox="0 0 76 76" fill="none" xmlns="http://www.w3.org/2000/svg">
<circle cx="38" cy="38" r="35.5" fill="white" stroke="#ED3C6A" stroke-width="5"/>
<path d="M31.1138 48.3508C29.3015 48.3508 27.7426 47.9123 26.4369 47.0354C25.1313 46.139 24.1277 44.9015 23.4262 43.3231C22.7246 41.7251 22.3738 39.8738 22.3738 37.7692C22.3738 35.6646 22.7246 33.8231 23.4262 32.2446C24.1277 30.6467 25.1313 29.4092 26.4369 28.5323C27.7426 27.6359 29.3015 27.1877 31.1138 27.1877C32.9262 27.1877 34.4754 27.6359 35.7615 28.5323C37.0672 29.4092 38.061 30.6467 38.7431 32.2446C39.4446 33.8231 39.7954 35.6646 39.7954 37.7692C39.7954 39.8738 39.4446 41.7251 38.7431 43.3231C38.061 44.9015 37.0672 46.139 35.7615 47.0354C34.4754 47.9123 32.9262 48.3508 31.1138 48.3508ZM31.1138 45.7492C32.2051 45.7492 33.1795 45.4277 34.0369 44.7846C34.9138 44.1415 35.5959 43.2256 36.0831 42.0369C36.5703 40.8482 36.8138 39.4256 36.8138 37.7692C36.8138 36.1128 36.5703 34.6903 36.0831 33.5015C35.5959 32.3128 34.9138 31.4067 34.0369 30.7831C33.1795 30.14 32.2051 29.8185 31.1138 29.8185C30.0031 29.8185 29.0092 30.14 28.1323 30.7831C27.2554 31.4067 26.5733 32.3128 26.0862 33.5015C25.599 34.6903 25.3554 36.1128 25.3554 37.7692C25.3554 39.4256 25.599 40.8482 26.0862 42.0369C26.5733 43.2256 27.2554 44.1415 28.1323 44.7846C29.0092 45.4277 30.0031 45.7492 31.1138 45.7492ZM45.6541 48V30.8415L42.0879 31.7477V29.5554L46.7356 27.5385H48.6356V48H45.6541Z" fill="black"/>
</svg>
