<svg width="76" height="76" viewBox="0 0 76 76" fill="none" xmlns="http://www.w3.org/2000/svg">
<circle cx="38" cy="38" r="35.5" fill="white" stroke="#ED3C6A" stroke-width="5"/>
<path d="M30.1138 48.3508C28.3015 48.3508 26.7426 47.9123 25.4369 47.0354C24.1313 46.139 23.1277 44.9015 22.4262 43.3231C21.7246 41.7251 21.3738 39.8738 21.3738 37.7692C21.3738 35.6646 21.7246 33.8231 22.4262 32.2446C23.1277 30.6467 24.1313 29.4092 25.4369 28.5323C26.7426 27.6359 28.3015 27.1877 30.1138 27.1877C31.9262 27.1877 33.4754 27.6359 34.7615 28.5323C36.0672 29.4092 37.061 30.6467 37.7431 32.2446C38.4446 33.8231 38.7954 35.6646 38.7954 37.7692C38.7954 39.8738 38.4446 41.7251 37.7431 43.3231C37.061 44.9015 36.0672 46.139 34.7615 47.0354C33.4754 47.9123 31.9262 48.3508 30.1138 48.3508ZM30.1138 45.7492C31.2051 45.7492 32.1795 45.4277 33.0369 44.7846C33.9138 44.1415 34.5959 43.2256 35.0831 42.0369C35.5703 40.8482 35.8138 39.4256 35.8138 37.7692C35.8138 36.1128 35.5703 34.6903 35.0831 33.5015C34.5959 32.3128 33.9138 31.4067 33.0369 30.7831C32.1795 30.14 31.2051 29.8185 30.1138 29.8185C29.0031 29.8185 28.0092 30.14 27.1323 30.7831C26.2554 31.4067 25.5733 32.3128 25.0862 33.5015C24.599 34.6903 24.3554 36.1128 24.3554 37.7692C24.3554 39.4256 24.599 40.8482 25.0862 42.0369C25.5733 43.2256 26.2554 44.1415 27.1323 44.7846C28.0092 45.4277 29.0031 45.7492 30.1138 45.7492ZM41.678 48V45.8954C43.0421 44.8431 44.338 43.781 45.5657 42.7092C46.7934 41.6374 47.8847 40.5754 48.8396 39.5231C49.8139 38.4513 50.5739 37.4087 51.1196 36.3954C51.6652 35.3626 51.938 34.3785 51.938 33.4431C51.938 32.7805 51.8211 32.1667 51.5873 31.6015C51.3534 31.0364 50.9832 30.5785 50.4765 30.2277C49.9698 29.8574 49.278 29.6723 48.4011 29.6723C47.5632 29.6723 46.8616 29.8574 46.2965 30.2277C45.7509 30.5979 45.3319 31.0949 45.0396 31.7185C44.7668 32.3226 44.6303 32.9949 44.6303 33.7354H41.795C41.8145 32.3323 42.1165 31.1436 42.7011 30.1692C43.2857 29.1949 44.075 28.4544 45.0688 27.9477C46.0821 27.441 47.2124 27.1877 48.4596 27.1877C49.7652 27.1877 50.8955 27.4313 51.8503 27.9185C52.8052 28.3862 53.5457 29.0779 54.0719 29.9938C54.598 30.8903 54.8611 31.9913 54.8611 33.2969C54.8611 34.2323 54.676 35.1677 54.3057 36.1031C53.9355 37.019 53.4288 37.9154 52.7857 38.7923C52.1621 39.6692 51.4606 40.5169 50.6811 41.3354C49.9016 42.1344 49.0929 42.8944 48.255 43.6154C47.4365 44.3364 46.6473 44.9892 45.8873 45.5738H55.5042V48H41.678Z" fill="black"/>
</svg>
